<svg width="52" height="76" viewBox="0 0 52 76" fill="none" xmlns="http://www.w3.org/2000/svg">
<rect y="24" width="52" height="52" rx="14.8571" fill="#811EFF"/>
<path fill-rule="evenodd" clip-rule="evenodd" d="M17 44.8V44.8C17 45.4 17.3 45.9 17.8 46.3L23.8 50.4C25.2 51.3 26.9 51.3 28.3 50.4L34.3 46.4C34.7 45.9 35 45.4 35 44.8V44.8C35 43.8 34.2 43 33.2 43H18.8C17.8 43 17 43.8 17 44.8Z" stroke="white" stroke-width="1.5" stroke-linecap="round" stroke-linejoin="round"/>
<path d="M17 45V55C17 56.1 17.9 57 19 57H33C34.1 57 35 56.1 35 55V45" stroke="white" stroke-width="1.5" stroke-linecap="round" stroke-linejoin="round"/>
<path d="M17.5879 56.4121L23.6819 50.3181" stroke="white" stroke-width="1.5" stroke-linecap="round" stroke-linejoin="round"/>
<path d="M28.3599 50.3601L34.4119 56.4121" stroke="white" stroke-width="1.5" stroke-linecap="round" stroke-linejoin="round"/>
</svg>
