<svg width="52" height="78" viewBox="0 0 52 78" fill="none" xmlns="http://www.w3.org/2000/svg">
<rect y="26" width="52" height="52" rx="14.8571" fill="#01DD9B"/>
<path fill-rule="evenodd" clip-rule="evenodd" d="M32.965 56.6102L31.792 55.4372C31.206 54.8512 30.256 54.8512 29.671 55.4372L28.749 56.3592C28.543 56.5652 28.231 56.6342 27.965 56.5172C26.629 55.9322 25.309 55.0452 24.132 53.8682C22.96 52.6962 22.076 51.3822 21.49 50.0512C21.368 49.7762 21.439 49.4532 21.652 49.2402L22.478 48.4142C23.149 47.7432 23.149 46.7942 22.563 46.2082L21.39 45.0352C20.609 44.2542 19.343 44.2542 18.562 45.0352L17.91 45.6862C17.169 46.4272 16.86 47.4962 17.06 48.5562C17.554 51.1692 19.072 54.0302 21.521 56.4792C23.97 58.9282 26.831 60.4462 29.444 60.9402C30.504 61.1402 31.573 60.8312 32.314 60.0902L32.965 59.4392C33.746 58.6582 33.746 57.3922 32.965 56.6102V56.6102Z" stroke="white" stroke-width="1.5" stroke-linecap="round" stroke-linejoin="round"/>
<path d="M27 46.9911C28.031 46.9771 29.067 47.3591 29.854 48.1461" stroke="white" stroke-width="1.5" stroke-linecap="round" stroke-linejoin="round"/>
<path d="M32.682 45.3181C31.113 43.7491 29.056 42.9641 27 42.9641" stroke="white" stroke-width="1.5" stroke-linecap="round" stroke-linejoin="round"/>
<path d="M31.009 51C31.023 49.969 30.641 48.933 29.854 48.146" stroke="white" stroke-width="1.5" stroke-linecap="round" stroke-linejoin="round"/>
<path d="M32.6821 45.3181C34.2511 46.8871 35.0361 48.9441 35.0361 51.0001" stroke="white" stroke-width="1.5" stroke-linecap="round" stroke-linejoin="round"/>
</svg>
